<svg width="150" height="200" viewBox="0 0 150 200" fill="none" xmlns="http://www.w3.org/2000/svg">
<path fill-rule="evenodd" clip-rule="evenodd" d="M12.2976 64.875C5.50581 64.875 0 70.3808 0 77.1726V137.72C0 144.26 5.30189 149.562 11.8421 149.562C18.3823 149.562 23.6842 144.26 23.6842 137.719V76.2616C23.6842 69.973 18.5862 64.875 12.2976 64.875ZM138.613 64.8751C131.822 64.8751 126.316 70.3809 126.316 77.1727V137.72C126.316 144.26 131.618 149.562 138.158 149.562C144.698 149.562 150 144.26 150 137.72V76.2617C150 69.973 144.902 64.8751 138.613 64.8751ZM82.5911 126.988C82.5911 120.197 88.0969 114.691 94.8887 114.691C101.177 114.691 106.275 119.789 106.275 126.077V187.535C106.275 194.075 100.973 199.377 94.4332 199.377C87.893 199.377 82.5911 194.075 82.5911 187.535V126.988ZM57.8441 115.313C51.0524 115.313 45.5466 120.819 45.5466 127.611V188.158C45.5466 194.698 50.8484 200 57.3887 200C63.9289 200 69.2308 194.698 69.2308 188.158V126.7C69.2308 120.411 64.1328 115.313 57.8441 115.313Z" fill="#A4C63B"/>
<path class="head" d="M121.154 65.0308C121.154 51.8601 116.291 39.2289 107.636 29.9159C98.9802 20.6028 87.2408 15.3708 75 15.3708C62.7592 15.3708 51.0198 20.6028 42.3643 29.9159C33.7088 39.2289 28.8461 51.8601 28.8461 65.0308L75 65.0308H121.154Z" fill="#A4C63B"/>
<ellipse cx="91.5486" cy="38.5661" rx="2.88462" ry="2.64646" fill="white"/>
<ellipse cx="57.2368" cy="38.5661" rx="2.88462" ry="2.64646" fill="white"/>
<path d="M28.8461 68.4556H121.154V127.171C121.154 146.501 105.484 162.171 86.1538 162.171H63.8462C44.5162 162.171 28.8461 146.501 28.8461 127.171V68.4556Z" fill="#A4C63B"/>
<rect width="4.28503" height="27.1884" rx="2.14252" transform="matrix(0.822456 -0.568829 0.549572 0.835446 47.3684 2.86353)" fill="#A4C63B"/>
<rect width="4.28503" height="27.1884" rx="2.14252" transform="matrix(0.822456 -0.568829 0.549572 0.835446 47.3684 2.86353)" fill="#A4C63B"/>
<rect width="4.28503" height="27.1884" rx="2.14252" transform="matrix(0.822456 -0.568829 0.549572 0.835446 47.3684 2.86353)" fill="#A4C63B"/>
<rect width="4.28503" height="27.1884" rx="2.14252" transform="matrix(0.822456 0.568829 -0.549572 0.835446 99.0042 0)" fill="#A4C63B"/>
<rect width="4.28503" height="27.1884" rx="2.14252" transform="matrix(0.822456 0.568829 -0.549572 0.835446 99.0042 0)" fill="#A4C63B"/>
<rect width="4.28503" height="27.1884" rx="2.14252" transform="matrix(0.822456 0.568829 -0.549572 0.835446 99.0042 0)" fill="#A4C63B"/>
</svg>
